# xmcd CD database file
#
# Track frame offsets:
#	150
#	19280
#	37397
#	54652
#	72372
#	90742
#	101977
#	120195
#	143790
#	161897
#	177082
#	194737
#	213827
#
# Disc length: 3004 seconds
#
# Revision: 3
# Processed by: cddbd v1.5.2PL0 Copyright (c) Steve Scherf et al.
# Submitted via: CDex 1.79
#
DISCID=c40bba0d
DTITLE=Katinguele - No Compasso Do Criador
DYEAR=1900
DGENRE=Blues
TTITLE0=No Compasso Do Criador
TTITLE1=So Pedindo Bis
TTITLE2=Vem Me Namorar
TTITLE3=Ainda Resta Uma Bagagem
TTITLE4=Minha Felicidade
TTITLE5=Partido do Katinguele
TTITLE6=Recado a Minha Amada
TTITLE7=Saudade da Rainha Viola
TTITLE8=Luana
TTITLE9=Teu Abraco
TTITLE10=A Mais Linda Cancao
TTITLE11=Nossos Momentos
TTITLE12=Axe a Sua Fe
EXTD=
EXTT0=
EXTT1=
EXTT2=
EXTT3=
EXTT4=
EXTT5=
EXTT6=
EXTT7=
EXTT8=
EXTT9=
EXTT10=
EXTT11=
EXTT12=
PLAYORDER=
